<?xml version="1.0" standalone="no"?>
<!DOCTYPE svg PUBLIC "-//W3C//DTD SVG 20010904//EN"
 "http://www.w3.org/TR/2001/REC-SVG-20010904/DTD/svg10.dtd">
<svg version="1.0" xmlns="http://www.w3.org/2000/svg"
 width="64.000000pt" height="64.000000pt" viewBox="0 0 64.000000 64.000000"
 preserveAspectRatio="xMidYMid meet">
<metadata>
Created by potrace 1.14, written by Peter Selinger 2001-2017
</metadata>
<g transform="translate(0.000000,64.000000) scale(0.100000,-0.100000)"
fill="#000000" stroke="none">
<path d="M264 564 l-19 -27 -35 22 c-19 11 -38 21 -42 21 -3 0 -4 -17 -1 -37
4 -32 0 -42 -21 -62 -16 -16 -26 -35 -26 -54 0 -16 -16 -57 -35 -91 -47 -84
-46 -109 5 -141 23 -14 45 -23 51 -20 5 4 21 24 34 45 14 22 46 51 78 69 63
36 67 37 67 14 0 -45 -24 -95 -70 -147 -31 -35 -50 -67 -50 -82 l0 -24 195 0
195 0 -2 58 -1 57 -7 -55 c-7 -65 -12 -50 -29 83 -28 214 -90 305 -208 308
-21 0 -32 3 -26 6 9 3 7 15 -7 44 -11 21 -22 39 -23 39 -2 0 -12 -12 -23 -26z"/>
</g>
</svg>
